#!OML:ASF E:\emotionWalksFemale\Project 1\Capture day 1\Session 1\Female1.ASF
:FULLY-SPECIFIED
:DEGREES
261
root 8.67535 15.1212 41.7376 180.664 -12.0816 -178.703
lowerback 7.22822 2.51468 1.25041
upperback -4.31701 3.45119 0.0328647
thorax -8.54451 1.58332 -1.16039
lowerneck -3.11842 -4.8135 -10.5488
upperneck 5.91764 -6.68767 10.4048
head 2.96552 -3.29204 4.61217
rclavicle 3.96389e-014 7.95139e-016
rhumerus -46.2323 17.3495 -100.093
rradius 34.3619
rwrist 18.8794
rhand -12.2279 -57.3392
rfingers 7.12502
rthumb -166.163 93.1411
lclavicle 3.96389e-014 7.95139e-016
lhumerus -43.4004 -7.90198 91.8015
lradius 35.4235
lwrist -18.1479
lhand -1.69691 -35.4068
lfingers 7.12502
lthumb 23.9641 -6.88246
rfemur -5.06897 13.2186 27.2375
rtibia 27.3444
rfoot -29.6022 -35.0241
rtoes 18.5847
lfemur -11.4506 -21.7466 -23.2554
ltibia 31.8357
lfoot -24.4511 10.2517
ltoes -34.5601
262
root 8.66797 15.1204 41.7347 180.614 -11.8807 -178.579
lowerback 7.20283 2.47053 1.35319
upperback -4.26647 3.40756 0.0867912
thorax -8.47331 1.55975 -1.1519
lowerneck -3.09839 -4.81589 -10.6465
upperneck 5.83226 -6.68791 10.5013
head 2.94342 -3.29194 4.65903
rclavicle -3.90177e-014 -2.18663e-015
rhumerus -46.2046 17.5145 -100.125
rradius 34.5215
rwrist 18.6804
rhand -11.8602 -57.2871
rfingers 7.12502
rthumb -165.808 93.2177
lclavicle -3.90177e-014 -2.18663e-015
lhumerus -43.4307 -7.95624 91.8131
lradius 35.3943
lwrist -18.0093
lhand -3.3926 -35.372
lfingers 7.12502
lthumb 22.3371 -6.64324
rfemur -5.07592 13.2683 27.3313
rtibia 27.3862
rfoot -29.4649 -35.0599
rtoes 17.6919
lfemur -11.3391 -21.9631 -23.2077
ltibia 31.8149
lfoot -24.5223 10.6501
ltoes -34.3984
263
root 8.66139 15.1201 41.734 180.671 -11.7316 -178.6
lowerback 7.32375 2.46641 1.28601
upperback -4.37196 3.39252 0.0562897
thorax -8.66105 1.55036 -1.15357
lowerneck -3.05057 -4.83952 -10.5467
upperneck 5.93828 -6.7389 10.4541
head 2.96735 -3.31944 4.62579
rclavicle -3.12154e-014 -9.74045e-015
rhumerus -46.3545 17.261 -100.102
rradius 34.6646
rwrist 18.6866
rhand -11.1629 -57.2022
rfingers 7.12502
rthumb -165.136 93.3509
lclavicle -3.12154e-014 -9.74045e-015
lhumerus -43.6142 -7.88595 91.6994
lradius 35.4417
lwrist -17.8818
lhand -1.27746 -35.1612
lfingers 7.12502
lthumb 24.3662 -6.69031
rfemur -5.1512 13.3721 27.2563
rtibia 27.3945
rfoot -29.4588 -35.0838
rtoes 17.3055
lfemur -11.3084 -22.5711 -23.2891
ltibia 31.7835
lfoot -24.653 11.0841
ltoes -32.777
264
root 8.65306 15.1222 41.7347 180.849 -11.5023 -178.688
lowerback 7.27543 2.52655 1.26134
upperback -4.46616 3.45531 -0.0897472
thorax -8.72563 1.57449 -1.30315
lowerneck -3.07812 -4.93582 -10.1889
upperneck 6.10604 -6.88756 10.237
head 3.01784 -3.39258 4.49021
rclavicle -1.07344e-014 -6.16232e-015
rhumerus -46.3677 16.8577 -100.117
rradius 34.7368
rwrist 18.6455
rhand -10.6024 -57.1358
rfingers 7.12502
rthumb -164.597 93.458
lclavicle -1.07344e-014 -6.16232e-015
lhumerus -43.645 -7.9701 91.4706
lradius 35.5653
lwrist -17.3765
lhand 0.439038 -35.3872
lfingers 7.12502
lthumb 26.0108 -7.14751
rfemur -5.34508 13.4422 27.0617
rtibia 27.3796
rfoot -29.2995 -34.9667
rtoes 17.1467
lfemur -11.4189 -22.7899 -23.3714
ltibia 31.7647
lfoot -24.8746 11.1428
ltoes -30.9209
265
root 8.64217 15.1272 41.7298 181.117 -11.1636 -178.717
lowerback 6.9598 2.59227 1.22498
upperback -4.53751 3.52461 -0.145266
thorax -8.61446 1.60778 -1.33652
lowerneck -3.04989 -4.97464 -10.0814
upperneck 6.17979 -6.95634 10.2087
head 3.03742 -3.42742 4.46031
rclavicle -4.008e-014 -2.78299e-015
rhumerus -46.3933 16.7182 -100.129
rradius 34.8645
rwrist 18.5187
rhand -10.4675 -56.987
rfingers 7.12502
rthumb -164.467 93.6169
lclavicle -4.008e-014 -2.78299e-015
lhumerus -43.7364 -8.30182 91.5213
lradius 35.5248
lwrist -17.4723
lhand -0.428907 -35.6582
lfingers 7.12502
lthumb 25.1795 -7.29906
rfemur -5.63686 13.576 26.8952
rtibia 27.385
rfoot -29.179 -34.7752
rtoes 16.7871
lfemur -11.6077 -22.6055 -23.3651
ltibia 31.7328
lfoot -24.9193 11.3774
ltoes -31.176
266
root 8.63201 15.1205 41.7227 180.898 -11.0344 -178.699
lowerback 7.01042 2.54743 1.1945
upperback -4.43297 3.46821 -0.116118
thorax -8.53586 1.58693 -1.28055
lowerneck -2.95534 -4.95489 -10.1696
upperneck 6.12885 -6.95068 10.4118
head 3.01592 -3.42546 4.54051
rclavicle 3.72473e-014 1.09332e-014
rhumerus -46.3671 16.6417 -100.079
rradius 34.9008
rwrist 18.3586
rhand -10.7798 -56.5779
rfingers 7.12502
rthumb -164.767 94.0029
lclavicle 3.72473e-014 1.09332e-014
lhumerus -43.6877 -8.32885 91.4706
lradius 35.7838
lwrist -16.4401
lhand 1.55058 -34.7628
lfingers 7.12502
lthumb 27.0747 -6.68405
rfemur -5.36387 13.6512 26.9509
rtibia 27.4092
rfoot -29.3843 -34.7454
rtoes 16.4862
lfemur -11.2658 -22.3407 -23.4991
ltibia 31.7258
lfoot -24.7931 11.6196
ltoes -32.2855
267
root 8.62616 15.1201 41.7173 180.964 -11.0757 -178.703
lowerback 6.80813 2.4387 1.08383
upperback -4.39979 3.31 -0.0694637
thorax -8.39439 1.51994 -1.13645
lowerneck -3.00039 -4.92688 -10.2038
upperneck 6.17134 -6.91755 10.4808
head 3.03601 -3.40725 4.56792
rclavicle 2.21024e-014 5.56597e-015
rhumerus -46.3162 16.7466 -100.071
rradius 34.8507
rwrist 18.1448
rhand -10.9646 -56.4791
rfingers 7.12502
rthumb -164.945 94.0883
lclavicle 2.21024e-014 5.56597e-015
lhumerus -43.7874 -8.30381 91.4143
lradius 35.6216
lwrist -16.9836
lhand 0.0585533 -34.9381
lfingers 7.12502
lthumb 25.6465 -6.6454
rfemur -5.39949 13.6483 26.9354
rtibia 27.3941
rfoot -29.4278 -34.8524
rtoes 16.4292
lfemur -11.3423 -22.1016 -23.4582
ltibia 31.7516
lfoot -24.8615 11.2402
ltoes -32.1859
268
root 8.61899 15.1182 41.7177 180.917 -10.8796 -178.668
lowerback 6.76977 2.38561 1.15008
upperback -4.33346 3.24711 -0.0659663
thorax -8.29808 1.48829 -1.1574
lowerneck -3.03009 -4.88929 -10.2375
upperneck 6.24673 -6.87132 10.5045
head 3.06032 -3.38405 4.58219
rclavicle -3.6067e-014 -6.65929e-015
rhumerus -46.2239 16.9415 -100.158
rradius 34.841
rwrist 17.9228
rhand -10.4739 -56.7207
rfingers 7.12502
rthumb -164.473 93.8827
lclavicle -3.6067e-014 -6.65929e-015
lhumerus -43.8615 -8.32169 91.3202
lradius 35.8258
lwrist -16.551
lhand 0.34469 -34.7161
lfingers 7.12502
lthumb 25.9205 -6.46315
rfemur -5.36522 13.634 26.9326
rtibia 27.3854
rfoot -29.2664 -34.7675
rtoes 16.3353
lfemur -11.2894 -22.0348 -23.4732
ltibia 31.8142
lfoot -25.0402 11.1763
ltoes -31.6178
269
root 8.61041 15.1161 41.7105 180.893 -10.8625 -178.556
lowerback 6.81687 2.32723 1.19979
upperback -4.40189 3.17735 0.000654936
thorax -8.4026 1.45027 -1.10955
lowerneck -2.92874 -4.89548 -10.2617
upperneck 6.33429 -6.89247 10.4474
head 3.07047 -3.40043 4.56921
rclavicle 2.29721e-014 4.87022e-015
rhumerus -46.6813 17.1975 -100.434
rradius 34.1202
rwrist 20.9024
rhand -12.3358 -55.7241
rfingers 7.12502
rthumb -166.267 94.7491
lclavicle 2.29721e-014 4.87022e-015
lhumerus -44.0191 -8.1816 91.2596
lradius 36.1066
lwrist -15.7536
lhand 2.34064 -34.5395
lfingers 7.12502
lthumb 27.8303 -6.58061
rfemur -5.29621 13.6306 27.0436
rtibia 27.3751
rfoot -29.3167 -34.6992
rtoes 15.7542
lfemur -11.2628 -21.7921 -23.3898
ltibia 31.841
lfoot -24.9285 11.2728
ltoes -33.1971
